<?xml version="1.0" encoding="UTF-8" standalone="no"?>
<!-- Created with Inkscape (http://www.inkscape.org/) -->

<svg
   width="210mm"
   height="297mm"
   viewBox="0 0 210 297"
   version="1.1"
   id="svg1"
   inkscape:version="1.3 (0e150ed6c4, 2023-07-21)"
   sodipodi:docname="Invader.svg"
   xmlns:inkscape="http://www.inkscape.org/namespaces/inkscape"
   xmlns:sodipodi="http://sodipodi.sourceforge.net/DTD/sodipodi-0.dtd"
   xmlns="http://www.w3.org/2000/svg"
   xmlns:svg="http://www.w3.org/2000/svg">
  <sodipodi:namedview
     id="namedview1"
     pagecolor="#ffffff"
     bordercolor="#000000"
     borderopacity="0.25"
     inkscape:showpageshadow="2"
     inkscape:pageopacity="0.0"
     inkscape:pagecheckerboard="0"
     inkscape:deskcolor="#d1d1d1"
     inkscape:document-units="mm"
     inkscape:zoom="2.955623"
     inkscape:cx="373.86365"
     inkscape:cy="637.93657"
     inkscape:window-width="2560"
     inkscape:window-height="1369"
     inkscape:window-x="1912"
     inkscape:window-y="-8"
     inkscape:window-maximized="1"
     inkscape:current-layer="layer1" />
  <defs
     id="defs1" />
  <g
     inkscape:label="Laag 1"
     inkscape:groupmode="layer"
     id="layer1">
    <path
       style="fill:#000000;stroke:#b8b8b8;stroke-width:0.264583"
       d="m 72.349364,161.3912 -0.186021,6.61248 c 0,0 0.123838,2.87726 -0.01044,4.2648 -0.134278,1.74561 -0.887778,3.73888 -1.575073,4.20726 -3.262037,-1.63532 -4.659774,-2.49598 -8.615975,-0.31212 -2.405371,2.18376 -1.836976,1.41858 -2.913062,3.60241 -0.777228,2.12592 -0.860878,2.73189 -0.655248,4.75126 0.165848,2.07872 0.414815,2.63376 0.760135,4.08769 0.204781,0.86219 0.772139,3.07953 2.531426,3.09677 3.228262,0.0317 9.76099,0.17616 9.874679,-0.1266 1.356532,-3.61251 4.943158,-7.97366 8.039002,-0.15825 0.173777,0.43869 6.250789,0.18876 9.779731,0.095 1.624271,-0.0432 1.628495,-0.95923 2.088875,-1.86733 0.886729,-1.74906 1.25469,-3.57442 1.139384,-7.7225 -0.07021,-2.52562 -1.624153,-4.23197 -2.500317,-5.06394 -1.396049,-1.32563 -3.184173,-1.85244 -4.557544,-1.99392 -1.44655,-0.14903 -3.945099,0.8986 -5.507033,1.7737 -0.628241,0.35198 -0.843342,-1.79584 -1.013333,-4.69872 -0.210968,-3.60263 -0.01549,-7.78127 -0.06182,-9.93389 -0.0493,-2.29061 0.365283,-9.40401 -3.442515,-9.63902 -0.896124,-0.0553 -3.007053,0.68856 -3.006328,5.38121 z"
       id="path1"
       sodipodi:nodetypes="cccccccssssssssssssscc" />
    <ellipse
       style="fill:#000000;stroke:#b8b8b8;stroke-width:0.264583"
       id="path2"
       cx="65.878677"
       cy="183.39371"
       rx="7.0420399"
       ry="7.9598784" />
    <ellipse
       style="fill:#000000;stroke:#b8b8b8;stroke-width:0.264583"
       id="path2-4"
       cx="85.209221"
       cy="183.278"
       rx="7.0420399"
       ry="7.9598784" />
  </g>
</svg>
